<svg width="120" height="120" viewBox="0 0 120 120" fill="none" xmlns="http://www.w3.org/2000/svg" role="img" aria-label="Shish Shawarma &amp; Grill">
  <rect width="120" height="120" rx="24" fill="#111111"/>
  <g transform="translate(60 60)">
    <circle cx="0" cy="-40" r="6" fill="#E7B94E"/>
    <rect x="-2.5" y="-40" width="5" height="86" rx="2.5" fill="#E7B94E"/>
    <path d="M0 -32
             C 22 -28 28 -18 26 -8
             C 34 -6 36 6 30 14
             C 38 18 38 28 28 34
             C 18 42 -18 42 -28 34
             C -38 28 -38 18 -30 14
             C -36 6 -34 -6 -26 -8
             C -28 -18 -22 -28 0 -32 Z"
          fill="#E7B94E"/>
    <path d="M-26 -8 C -6 -3 12 -3 26 -8" stroke="#111111" stroke-width="2.5" fill="none" stroke-linecap="round"/>
    <path d="M-30 14 C -8 20 16 20 30 14" stroke="#111111" stroke-width="2.5" fill="none" stroke-linecap="round"/>
    <path d="M-3 46 L0 58 L3 46 Z" fill="#E7B94E"/>
  </g>
</svg>
